<svg 
 xmlns="http://www.w3.org/2000/svg"
 xmlns:xlink="http://www.w3.org/1999/xlink"
 width="12px" height="16px">
<path fill-rule="evenodd"  fill="rgb(240, 87, 32)"
 d="M5.530,-0.001 C2.497,-0.001 0.030,2.437 0.030,5.434 C0.030,9.152 4.952,14.611 5.161,14.841 C5.358,15.058 5.702,15.057 5.898,14.841 C6.108,14.611 11.030,9.152 11.030,5.434 C11.029,2.437 8.562,-0.001 5.530,-0.001 ZM5.530,8.167 C4.004,8.167 2.762,6.941 2.762,5.434 C2.762,3.926 4.004,2.699 5.530,2.699 C7.055,2.699 8.297,3.926 8.297,5.434 C8.297,6.941 7.055,8.167 5.530,8.167 Z"/>
</svg>